# Blender 4.3.0
# www.blender.org
mtllib pointcube.mtl
o Cube
v 1.000000 1.000000 1.000000
v 0.840708 0.000000 0.840708
v -0.000000 0.840708 0.840708
v 0.840708 0.840708 0.000000
v -0.000000 0.840708 0.000000
v -0.000000 0.000000 0.840708
v 0.840708 0.000000 0.000000
v 0.000000 0.000000 0.000000
vn -0.1349 0.9816 -0.1349
vn 0.9816 -0.1349 -0.1349
vn 1.0000 -0.0000 -0.0000
vn -0.0000 -0.0000 1.0000
vn -0.0000 1.0000 -0.0000
vn -1.0000 -0.0000 -0.0000
vn -0.0000 -0.0000 -1.0000
vn -0.1349 -0.1349 0.9816
vn -0.0000 -1.0000 -0.0000
vt 0.625000 0.750000
vt 0.625000 0.625000
vt 0.000000 0.000000
vt 0.500000 0.750000
s 0
usemtl Material
f 1/1/1 4/2/1 3/3/1
f 1/1/2 2/4/2 4/2/2
f 3/3/3 6/3/3 8/3/3 5/3/3
f 7/3/4 4/3/4 5/3/4 8/3/4
f 2/3/5 7/3/5 8/3/5 6/3/5
f 2/3/6 4/3/6 7/3/6
f 6/3/7 3/3/7 2/3/7
f 2/3/8 1/1/8 3/3/8
f 5/3/9 4/3/9 3/3/9
